<mxfile host="app.diagrams.net" modified="2024-07-29T01:13:51.874Z" agent="Mozilla/5.0 (Windows NT 10.0; Win64; x64) AppleWebKit/537.36 (KHTML, like Gecko) Chrome/109.0.0.0 Safari/537.36" etag="aF3VR8hIM6_WLRFsI1Q5" version="24.7.3" type="github">
  <diagram name="第 1 页" id="S3rSHQPK5qMWLmon7eMp">
    <mxGraphModel dx="977" dy="591" grid="1" gridSize="10" guides="1" tooltips="1" connect="1" arrows="1" fold="1" page="1" pageScale="1" pageWidth="827" pageHeight="1169" math="0" shadow="0">
      <root>
        <mxCell id="0" />
        <mxCell id="1" parent="0" />
        <mxCell id="spJtF1GtVWfvJzPOTzPs-1" value="接入网业务统计表" style="rounded=1;whiteSpace=wrap;html=1;" vertex="1" parent="1">
          <mxGeometry x="120" y="160" width="100" height="40" as="geometry" />
        </mxCell>
      </root>
    </mxGraphModel>
  </diagram>
</mxfile>
